<?xml version="1.0" encoding="UTF-8"?>
<svg width="152px" height="152px" viewBox="0 0 152 152" version="1.1" xmlns="http://www.w3.org/2000/svg" xmlns:xlink="http://www.w3.org/1999/xlink">
    <!-- Generator: Sketch 42 (36781) - http://www.bohemiancoding.com/sketch -->
    <title>en-us</title>
    <desc>Created with Sketch.</desc>
    <defs></defs>
    <g id="Page-1" stroke="none" stroke-width="1" fill="none" fill-rule="evenodd">
        <g id="en-us">
            <g id="usa" transform="translate(207.417263, 128.155672) rotate(45.000000) translate(-207.417263, -128.155672) translate(-79.582737, 73.155672)">
                <g id="Group">
                    <polygon id="Shape" fill="#FFFFFF" fill-rule="nonzero" points="158.462987 42.6577074 573.341407 42.6577074 573.341407 25.8999215 158.462987 25.8999215"></polygon>
                    <polygon id="Path" fill="#FFFFFF" fill-rule="nonzero" points="573.341407 59.4154934 158.462987 59.4154934 158.462987 76.1732793 573.341407 76.1732793"></polygon>
                    <polygon id="Path" fill="#FFFFFF" fill-rule="nonzero" points="158.462987 109.688851 573.341407 109.688851 573.341407 92.9310652 158.462987 92.9310652"></polygon>
                    <g transform="translate(0.390547, 0.027336)">
                        <g id="s18" transform="translate(0.000000, 0.000000)">
                            <g id="s9-link" transform="translate(27.658561, -0.000000)">
                                <g id="s9"></g>
                            </g>
                        </g>
                        <g id="s18-link" transform="translate(55.317123, -0.000000)" fill-rule="nonzero" fill="#FFFFFF">
                            <g id="s18">
                                <g id="s9">
                                    <g id="s5">
                                        <g id="s-link" transform="translate(0.000000, 93.843601)">
                                            <polygon id="s" points="6.43873392 -2.27373675e-13 10.3878743 12.1260478 0.0488905944 4.63173813 12.8285772 4.63173813 2.48959358 12.1260478"></polygon>
                                        </g>
                                    </g>
                                    <g id="s4-link" transform="translate(13.829281, 11.730450)">
                                        <g id="s4">
                                            <g id="s-link" transform="translate(0.000000, 70.382701)">
                                                <polygon id="s" points="6.43873392 0 10.3878743 12.1260478 0.0488905944 4.63173813 12.8285772 4.63173813 2.48959358 12.1260478"></polygon>
                                            </g>
                                        </g>
                                    </g>
                                </g>
                                <g id="s9-link" transform="translate(27.658561, 0.000000)">
                                    <g id="s9">
                                        <g id="s5">
                                            <g id="s4">
                                                <g id="s-link" transform="translate(0.000000, 70.382701)">
                                                    <polygon id="s" points="6.43873392 -1.13686838e-13 10.3878743 12.1260478 0.0488905944 4.63173813 12.8285772 4.63173813 2.48959358 12.1260478"></polygon>
                                                </g>
                                            </g>
                                            <g id="s-link" transform="translate(0.000000, 93.843601)">
                                                <polygon id="s" points="6.43873392 0 10.3878743 12.1260478 0.0488905944 4.63173813 12.8285772 4.63173813 2.48959358 12.1260478"></polygon>
                                            </g>
                                        </g>
                                        <g id="s4-link" transform="translate(13.829281, 11.730450)">
                                            <g id="s4">
                                                <g id="s-link" transform="translate(0.000000, 46.921801)">
                                                    <polygon id="s" points="6.43873392 0 10.3878743 12.1260478 0.0488905944 4.63173813 12.8285772 4.63173813 2.48959358 12.1260478"></polygon>
                                                </g>
                                                <g id="s-link" transform="translate(0.000000, 70.382701)">
                                                    <polygon id="s" points="6.43873392 0 10.3878743 12.1260478 0.0488905944 4.63173813 12.8285772 4.63173813 2.48959358 12.1260478"></polygon>
                                                </g>
                                            </g>
                                        </g>
                                    </g>
                                </g>
                            </g>
                        </g>
                        <g id="s9-link" transform="translate(110.634245, -0.000000)" fill-rule="nonzero" fill="#FFFFFF">
                            <g id="s9">
                                <g id="s5">
                                    <g id="s4">
                                        <g id="s-link" transform="translate(0.000000, 46.921801)">
                                            <polygon id="s" points="6.43873392 -1.93622895e-13 10.3878743 12.1260478 0.0488905944 4.63173813 12.8285772 4.63173813 2.48959358 12.1260478"></polygon>
                                        </g>
                                        <g id="s-link" transform="translate(0.000000, 70.382701)">
                                            <polygon id="s" points="6.43873392 -6.48370246e-13 10.3878743 12.1260478 0.0488905944 4.63173813 12.8285772 4.63173813 2.48959358 12.1260478"></polygon>
                                        </g>
                                    </g>
                                    <g id="s-link" transform="translate(0.000000, 93.843601)">
                                        <polygon id="s" points="6.43873392 0 10.3878743 12.1260478 0.0488905944 4.63173813 12.8285772 4.63173813 2.48959358 12.1260478"></polygon>
                                    </g>
                                </g>
                                <g id="s4-link" transform="translate(13.829281, 11.730450)">
                                    <g id="s4" transform="translate(0.000000, 0.000000)">
                                        <polygon id="s" points="6.43873392 0 10.3878743 12.1260478 0.0488905944 4.63173813 12.8285772 4.63173813 2.48959358 12.1260478"></polygon>
                                        <g id="s-link" transform="translate(0.000000, 23.460900)">
                                            <polygon id="s" points="6.43873392 0 10.3878743 12.1260478 0.0488905944 4.63173813 12.8285772 4.63173813 2.48959358 12.1260478"></polygon>
                                        </g>
                                        <g id="s-link" transform="translate(0.000000, 46.921801)">
                                            <polygon id="s" points="6.43873392 0 10.3878743 12.1260478 0.0488905944 4.63173813 12.8285772 4.63173813 2.48959358 12.1260478"></polygon>
                                        </g>
                                        <g id="s-link" transform="translate(0.000000, 70.382701)">
                                            <polygon id="s" points="6.43873392 -4.20996571e-13 10.3878743 12.1260478 0.0488905944 4.63173813 12.8285772 4.63173813 2.48959358 12.1260478"></polygon>
                                        </g>
                                    </g>
                                </g>
                            </g>
                        </g>
                        <g id="s5-link" transform="translate(138.292807, 0.000000)" fill-rule="nonzero" fill="#FFFFFF">
                            <g id="s5">
                                <g id="s4" transform="translate(0.000000, 0.000000)">
                                    <polygon id="s" points="6.43873392 0 10.3878743 12.1260478 0.0488905944 4.63173813 12.8285772 4.63173813 2.48959358 12.1260478"></polygon>
                                    <g id="s-link" transform="translate(0.000000, 23.460900)">
                                        <polygon id="s" points="6.43873392 -1.13686838e-13 10.3878743 12.1260478 0.0488905944 4.63173813 12.8285772 4.63173813 2.48959358 12.1260478"></polygon>
                                    </g>
                                    <g id="s-link" transform="translate(0.000000, 46.921801)">
                                        <polygon id="s" points="6.43873392 0 10.3878743 12.1260478 0.0488905944 4.63173813 12.8285772 4.63173813 2.48959358 12.1260478"></polygon>
                                    </g>
                                    <g id="s-link" transform="translate(0.000000, 70.382701)">
                                        <polygon id="s" points="6.43873392 -1.13686838e-13 10.3878743 12.1260478 0.0488905944 4.63173813 12.8285772 4.63173813 2.48959358 12.1260478"></polygon>
                                    </g>
                                </g>
                                <g id="s-link" transform="translate(0.000000, 93.843601)">
                                    <polygon id="s" points="6.43873392 2.27373675e-13 10.3878743 12.1260478 0.0488905944 4.63173813 12.8285772 4.63173813 2.48959358 12.1260478"></polygon>
                                </g>
                            </g>
                        </g>
                    </g>
                </g>
            </g>
        </g>
    </g>
</svg>