<?xml version="1.0" encoding="UTF-8"?>
<svg width="152px" height="152px" viewBox="0 0 152 152" version="1.1" xmlns="http://www.w3.org/2000/svg" xmlns:xlink="http://www.w3.org/1999/xlink">
    <!-- Generator: Sketch 42 (36781) - http://www.bohemiancoding.com/sketch -->
    <title>pt</title>
    <desc>Created with Sketch.</desc>
    <defs></defs>
    <g id="Page-1" stroke="none" stroke-width="1" fill="none" fill-rule="evenodd">
        <g id="pt" fill-rule="nonzero" fill="#FFFFFF">
            <g id="bra" transform="translate(77.858910, 73.451840) rotate(-315.000000) translate(-77.858910, -73.451840) translate(-67.141090, -31.548160)">
                <g id="Group" transform="translate(0.000000, -0.000000)">
                    <path d="M196.702503,109.143392 L255.886673,109.143392 L145.487373,0.636038969 L35.9176076,109.143392 L95.035937,109.143392 C92.9552886,103.394226 91.8208327,97.1915027 91.8208327,90.7236203 C91.8208327,60.851874 116.01912,36.636039 145.86922,36.636039 C175.71932,36.636039 199.917608,60.851874 199.917608,90.7236203 C199.917608,97.1915027 198.783152,103.394226 196.702503,109.143392 Z" id="Combined-Shape"></path>
                </g>
                <path d="M95.4074566,60.3891177 C138.402381,60.3891177 177.788987,76.7883269 208.31891,104.01559 C208.162113,108.495101 207.616381,112.868288 206.716759,117.097695 C177.342508,88.6819365 138.281102,71.3559369 95.4074566,71.3559369 C90.7852374,71.3559369 86.2073281,71.557318 81.6810904,71.9522655 C83.3918269,67.9408955 85.4422326,64.1298675 87.7930174,60.5611763 C90.3177281,60.4468586 92.85624,60.3891177 95.4074566,60.3891177 Z" id="Combined-Shape" transform="translate(145.000000, 88.743406) rotate(-15.000000) translate(-145.000000, -88.743406) "></path>
            </g>
        </g>
    </g>
</svg>